<?xml version="1.0" encoding="UTF-8" standalone="no"?>
<!-- Generator: Adobe Illustrator 16.0.0, SVG Export Plug-In . SVG Version: 6.00 Build 0)  -->

<svg
   xmlns:dc="http://purl.org/dc/elements/1.1/"
   xmlns:cc="http://creativecommons.org/ns#"
   xmlns:rdf="http://www.w3.org/1999/02/22-rdf-syntax-ns#"
   xmlns:svg="http://www.w3.org/2000/svg"
   xmlns="http://www.w3.org/2000/svg"
   xmlns:sodipodi="http://sodipodi.sourceforge.net/DTD/sodipodi-0.dtd"
   xmlns:inkscape="http://www.inkscape.org/namespaces/inkscape"
   version="1.1"
   id="Layer_1"
   x="0px"
   y="0px"
   width="359.53082"
   height="60.46101"
   viewBox="0 0 359.53083 60.461006"
   enable-background="new 0 0 400 150"
   xml:space="preserve"
   inkscape:version="0.92.4 5da689c313, 2019-01-14"
   sodipodi:docname="umk.svg"><metadata
   id="metadata93"><rdf:RDF><cc:Work
       rdf:about=""><dc:format>image/svg+xml</dc:format><dc:type
         rdf:resource="http://purl.org/dc/dcmitype/StillImage" /><dc:title></dc:title></cc:Work></rdf:RDF></metadata><defs
   id="defs91" /><sodipodi:namedview
   pagecolor="#ffffff"
   bordercolor="#666666"
   borderopacity="1"
   objecttolerance="10"
   gridtolerance="10"
   guidetolerance="10"
   inkscape:pageopacity="0"
   inkscape:pageshadow="2"
   inkscape:window-width="1663"
   inkscape:window-height="875"
   id="namedview89"
   showgrid="false"
   fit-margin-top="0"
   fit-margin-left="0"
   fit-margin-right="0"
   fit-margin-bottom="0"
   inkscape:zoom="1.245"
   inkscape:cx="240.3826"
   inkscape:cy="44.076745"
   inkscape:window-x="63"
   inkscape:window-y="200"
   inkscape:window-maximized="0"
   inkscape:current-layer="Layer_1" /><g
   id="g4414"
   transform="matrix(0.81323939,0,0,0.81323939,-47.951575,-14.080242)"
   inkscape:export-xdpi="122.1"
   inkscape:export-ydpi="122.1"><path
     style="fill:#000000;fill-opacity:1"
     inkscape:connector-curvature="0"
     id="path9"
     d="m 125.07528,38.009299 c 0.088,0 0.176,0.021 0.242,0.065 0.089,0.044 0.155,0.088 0.221,0.132 0.067,0.066 0.132,0.155 0.221,0.243 l 7.208,9.171 c -0.023,-0.243 -0.044,-0.486 -0.044,-0.728 -0.022,-0.242 -0.022,-0.463 -0.022,-0.683 v -8.223 h 2.624 v 14.396 h -1.542 c -0.221,0 -0.42,-0.043 -0.574,-0.11 -0.176,-0.088 -0.331,-0.22 -0.485,-0.397 l -7.164,-9.126 c 0.021,0.242 0.044,0.462 0.044,0.683 0.021,0.221 0.021,0.441 0.021,0.618 v 8.333 h -2.624 v -14.397 h 1.565 c 0.132,0 0.22,0 0.309,0.023 z" /><polygon
     transform="translate(-17.038718,-3.9757008)"
     style="fill:#000000;fill-opacity:1"
     id="polygon11"
     points="155.98,56.358 155.98,41.962 158.958,41.962 158.958,56.358 " /><path
     style="fill:#000000;fill-opacity:1"
     inkscape:connector-curvature="0"
     id="path13"
     d="m 155.14528,48.832299 c 0.154,0 0.288,0.066 0.397,0.177 l 1.191,1.256 c -0.573,0.75 -1.301,1.3 -2.16,1.698 -0.861,0.376 -1.897,0.573 -3.087,0.573 -1.081,0 -2.05,-0.176 -2.91,-0.55 -0.859,-0.376 -1.588,-0.882 -2.183,-1.522 -0.596,-0.661 -1.058,-1.433 -1.39,-2.337 -0.331,-0.905 -0.485,-1.896 -0.485,-2.955 0,-0.705 0.066,-1.388 0.221,-2.027 0.153,-0.64 0.397,-1.235 0.684,-1.786 0.308,-0.551 0.661,-1.036 1.079,-1.478 0.42,-0.419 0.905,-0.793 1.434,-1.102 0.529,-0.309 1.103,-0.552 1.72,-0.706 0.617,-0.154 1.3,-0.243 2.005,-0.243 0.53,0 1.014,0.044 1.5,0.133 0.462,0.088 0.904,0.22 1.322,0.396 0.397,0.154 0.793,0.353 1.125,0.596 0.353,0.242 0.662,0.484 0.947,0.771 l -1.014,1.366 c -0.044,0.088 -0.132,0.155 -0.221,0.22 -0.088,0.067 -0.22,0.111 -0.373,0.111 -0.155,0 -0.31,-0.066 -0.486,-0.176 -0.153,-0.11 -0.352,-0.243 -0.594,-0.375 -0.222,-0.133 -0.529,-0.265 -0.882,-0.375 -0.353,-0.11 -0.793,-0.176 -1.344,-0.176 -0.596,0 -1.146,0.109 -1.653,0.33 -0.508,0.221 -0.926,0.529 -1.302,0.949 -0.352,0.419 -0.638,0.925 -0.836,1.521 -0.198,0.596 -0.287,1.278 -0.287,2.05 0,0.772 0.111,1.478 0.308,2.072 0.221,0.595 0.53,1.125 0.904,1.521 0.353,0.419 0.793,0.75 1.3,0.948 0.508,0.221 1.036,0.331 1.61,0.331 0.331,0 0.64,-0.022 0.903,-0.044 0.287,-0.044 0.529,-0.087 0.771,-0.176 0.221,-0.067 0.442,-0.177 0.662,-0.309 0.199,-0.11 0.418,-0.287 0.617,-0.462 0.088,-0.066 0.155,-0.111 0.243,-0.155 0.067,-0.043 0.155,-0.065 0.264,-0.065 z" /><path
     style="fill:#000000;fill-opacity:1"
     inkscape:connector-curvature="0"
     id="path15"
     d="m 169.34328,45.172299 c 0,-0.749 -0.088,-1.433 -0.286,-2.027 -0.199,-0.596 -0.484,-1.102 -0.86,-1.521 -0.375,-0.419 -0.838,-0.75 -1.367,-0.971 -0.529,-0.22 -1.124,-0.33 -1.808,-0.33 -0.683,0 -1.279,0.109 -1.808,0.33 -0.55,0.221 -0.992,0.551 -1.366,0.971 -0.375,0.419 -0.663,0.925 -0.861,1.521 -0.197,0.595 -0.309,1.278 -0.309,2.027 0,0.772 0.112,1.456 0.309,2.05 0.198,0.596 0.485,1.104 0.861,1.522 0.374,0.419 0.815,0.728 1.366,0.948 0.529,0.221 1.125,0.331 1.808,0.331 0.684,0 1.279,-0.109 1.808,-0.331 0.529,-0.221 0.993,-0.529 1.367,-0.948 0.375,-0.418 0.661,-0.926 0.86,-1.522 0.198,-0.594 0.286,-1.277 0.286,-2.05 z m 3.042,0 c 0,1.059 -0.176,2.028 -0.528,2.932 -0.353,0.905 -0.861,1.676 -1.499,2.337 -0.64,0.64 -1.411,1.168 -2.315,1.544 -0.903,0.374 -1.918,0.55 -3.021,0.55 -1.102,0 -2.115,-0.176 -3.02,-0.55 -0.903,-0.376 -1.675,-0.904 -2.314,-1.544 -0.663,-0.661 -1.169,-1.433 -1.521,-2.337 -0.352,-0.904 -0.528,-1.873 -0.528,-2.932 0,-1.036 0.176,-2.027 0.528,-2.91 0.353,-0.903 0.859,-1.675 1.521,-2.336 0.64,-0.64 1.411,-1.169 2.314,-1.544 0.905,-0.374 1.918,-0.551 3.02,-0.551 1.103,0 2.118,0.177 3.021,0.551 0.904,0.375 1.676,0.904 2.315,1.565 0.638,0.639 1.146,1.433 1.499,2.314 0.352,0.906 0.528,1.876 0.528,2.911 z" /><polygon
     transform="translate(-17.038718,-3.9757008)"
     style="fill:#000000;fill-opacity:1"
     id="polygon17"
     points="194.979,41.962 194.979,53.933 200.536,53.933 200.536,56.358 192.003,56.358 192.003,41.962 " /><path
     style="fill:#000000;fill-opacity:1"
     inkscape:connector-curvature="0"
     id="path19"
     d="m 189.03028,46.915299 h 4.277 l -1.543,-4.409 c -0.111,-0.221 -0.2,-0.507 -0.31,-0.816 -0.088,-0.308 -0.199,-0.639 -0.286,-0.993 -0.11,0.354 -0.2,0.707 -0.288,1.015 -0.109,0.31 -0.197,0.595 -0.308,0.816 z m 9.281,5.467 h -2.315 c -0.263,0 -0.462,-0.065 -0.615,-0.199 -0.177,-0.109 -0.288,-0.265 -0.375,-0.462 l -0.97,-2.756 h -5.732 l -0.969,2.756 c -0.067,0.175 -0.179,0.309 -0.355,0.462 -0.152,0.134 -0.373,0.199 -0.615,0.199 h -2.336 l 5.619,-14.396 h 3.045 z" /><path
     style="fill:#000000;fill-opacity:1"
     inkscape:connector-curvature="0"
     id="path21"
     d="m 205.56528,50.001299 c 0.484,0 0.904,-0.087 1.301,-0.243 0.375,-0.176 0.705,-0.396 0.971,-0.683 0.264,-0.309 0.461,-0.662 0.596,-1.08 0.131,-0.441 0.219,-0.905 0.219,-1.433 v -8.576 h 2.977 v 8.576 c 0,0.86 -0.154,1.676 -0.441,2.403 -0.264,0.727 -0.684,1.366 -1.189,1.896 -0.529,0.507 -1.17,0.925 -1.918,1.235 -0.75,0.286 -1.588,0.44 -2.514,0.44 -0.947,0 -1.785,-0.154 -2.535,-0.44 -0.748,-0.31 -1.389,-0.728 -1.918,-1.235 -0.529,-0.53 -0.926,-1.168 -1.189,-1.896 -0.287,-0.728 -0.443,-1.543 -0.443,-2.403 v -8.576 h 2.979 v 8.576 c 0,0.528 0.064,0.992 0.219,1.433 0.133,0.418 0.332,0.771 0.596,1.08 0.266,0.286 0.596,0.506 0.969,0.683 0.396,0.156 0.812,0.243 1.32,0.243 z" /><path
     style="fill:#000000;fill-opacity:1"
     inkscape:connector-curvature="0"
     id="path23"
     d="m 222.65228,40.742299 c -0.111,0.155 -0.201,0.265 -0.289,0.331 -0.086,0.066 -0.219,0.11 -0.373,0.11 -0.156,0 -0.309,-0.044 -0.463,-0.154 -0.176,-0.11 -0.375,-0.22 -0.596,-0.332 -0.221,-0.109 -0.484,-0.241 -0.771,-0.33 -0.287,-0.11 -0.641,-0.154 -1.035,-0.154 -0.684,0 -1.191,0.154 -1.545,0.462 -0.33,0.31 -0.508,0.707 -0.508,1.191 0,0.331 0.09,0.595 0.287,0.794 0.176,0.221 0.443,0.396 0.727,0.551 0.309,0.155 0.664,0.287 1.059,0.397 0.398,0.132 0.797,0.243 1.191,0.396 0.42,0.133 0.816,0.31 1.213,0.508 0.373,0.176 0.729,0.418 1.035,0.705 0.311,0.309 0.553,0.662 0.752,1.08 0.197,0.419 0.287,0.925 0.287,1.521 0,0.662 -0.111,1.279 -0.355,1.852 -0.221,0.573 -0.549,1.059 -0.99,1.499 -0.422,0.419 -0.949,0.75 -1.588,0.993 -0.617,0.243 -1.344,0.375 -2.141,0.375 -0.463,0 -0.902,-0.044 -1.365,-0.132 -0.441,-0.11 -0.883,-0.221 -1.301,-0.396 -0.418,-0.155 -0.816,-0.353 -1.191,-0.596 -0.373,-0.222 -0.682,-0.486 -0.971,-0.771 l 0.861,-1.412 c 0.086,-0.11 0.176,-0.198 0.307,-0.264 0.111,-0.067 0.244,-0.089 0.377,-0.089 0.176,0 0.354,0.066 0.551,0.199 0.197,0.132 0.441,0.265 0.684,0.418 0.264,0.176 0.572,0.309 0.904,0.442 0.33,0.132 0.75,0.197 1.234,0.197 0.684,0 1.213,-0.154 1.609,-0.463 0.377,-0.33 0.551,-0.794 0.551,-1.432 0,-0.354 -0.088,-0.662 -0.264,-0.882 -0.199,-0.221 -0.441,-0.419 -0.752,-0.552 -0.307,-0.154 -0.639,-0.286 -1.033,-0.397 -0.398,-0.11 -0.795,-0.243 -1.191,-0.375 -0.42,-0.132 -0.816,-0.286 -1.213,-0.463 -0.398,-0.199 -0.727,-0.441 -1.037,-0.75 -0.309,-0.286 -0.551,-0.661 -0.75,-1.124 -0.176,-0.44 -0.264,-1.014 -0.264,-1.675 0,-0.53 0.088,-1.059 0.309,-1.543 0.223,-0.507 0.529,-0.948 0.926,-1.345 0.418,-0.397 0.928,-0.706 1.521,-0.948 0.596,-0.243 1.279,-0.353 2.051,-0.353 0.859,0 1.676,0.133 2.402,0.396 0.75,0.265 1.369,0.64 1.875,1.125 z" /><path
     style="fill:#000000;fill-opacity:1"
     inkscape:connector-curvature="0"
     id="path25"
     d="m 241.67828,48.832299 c 0.154,0 0.307,0.066 0.42,0.177 l 1.166,1.256 c -0.572,0.75 -1.301,1.3 -2.16,1.698 -0.859,0.376 -1.895,0.573 -3.086,0.573 -1.08,0 -2.049,-0.176 -2.91,-0.55 -0.861,-0.376 -1.588,-0.882 -2.184,-1.522 -0.596,-0.661 -1.057,-1.433 -1.389,-2.337 -0.33,-0.905 -0.484,-1.896 -0.484,-2.955 0,-0.705 0.088,-1.388 0.242,-2.027 0.154,-0.639 0.375,-1.235 0.662,-1.786 0.309,-0.551 0.66,-1.036 1.08,-1.478 0.418,-0.419 0.904,-0.793 1.432,-1.102 0.529,-0.309 1.102,-0.552 1.721,-0.706 0.641,-0.154 1.301,-0.243 2.006,-0.243 0.529,0 1.037,0.044 1.5,0.133 0.484,0.088 0.924,0.22 1.322,0.396 0.418,0.154 0.793,0.353 1.145,0.596 0.332,0.242 0.664,0.484 0.928,0.771 l -0.99,1.366 c -0.068,0.088 -0.135,0.155 -0.244,0.22 -0.088,0.067 -0.221,0.111 -0.377,0.111 -0.152,0 -0.307,-0.066 -0.484,-0.176 -0.152,-0.11 -0.352,-0.243 -0.594,-0.375 -0.221,-0.133 -0.508,-0.265 -0.881,-0.375 -0.354,-0.11 -0.795,-0.176 -1.346,-0.176 -0.596,0 -1.146,0.109 -1.654,0.33 -0.484,0.221 -0.926,0.529 -1.279,0.949 -0.375,0.419 -0.639,0.925 -0.836,1.521 -0.199,0.595 -0.309,1.278 -0.309,2.05 0,0.772 0.109,1.478 0.33,2.072 0.221,0.595 0.506,1.125 0.881,1.521 0.375,0.419 0.816,0.75 1.301,0.948 0.508,0.221 1.037,0.331 1.611,0.331 0.328,0 0.639,-0.022 0.902,-0.044 0.285,-0.044 0.531,-0.087 0.771,-0.176 0.244,-0.067 0.463,-0.177 0.662,-0.309 0.221,-0.11 0.42,-0.287 0.639,-0.462 0.066,-0.066 0.154,-0.111 0.223,-0.155 0.087,-0.043 0.173,-0.065 0.263,-0.065 z" /><path
     style="fill:#000000;fill-opacity:1"
     inkscape:connector-curvature="0"
     id="path27"
     d="m 255.87328,45.172299 c 0,-0.749 -0.088,-1.433 -0.283,-2.027 -0.201,-0.596 -0.486,-1.102 -0.861,-1.521 -0.375,-0.419 -0.84,-0.75 -1.367,-0.971 -0.529,-0.22 -1.125,-0.33 -1.809,-0.33 -0.66,0 -1.279,0.109 -1.807,0.33 -0.529,0.221 -0.992,0.551 -1.367,0.971 -0.375,0.419 -0.66,0.925 -0.861,1.521 -0.197,0.595 -0.285,1.278 -0.285,2.027 0,0.772 0.088,1.456 0.285,2.05 0.201,0.596 0.486,1.104 0.861,1.522 0.375,0.419 0.838,0.728 1.367,0.948 0.527,0.221 1.146,0.331 1.807,0.331 0.684,0 1.279,-0.109 1.809,-0.331 0.527,-0.221 0.992,-0.529 1.367,-0.948 0.375,-0.418 0.66,-0.926 0.861,-1.522 0.195,-0.594 0.283,-1.277 0.283,-2.05 z m 3.043,0 c 0,1.059 -0.176,2.028 -0.527,2.932 -0.354,0.905 -0.838,1.676 -1.502,2.337 -0.639,0.64 -1.41,1.168 -2.313,1.544 -0.904,0.374 -1.918,0.55 -3.021,0.55 -1.103,0 -2.096,-0.176 -2.998,-0.55 -0.924,-0.376 -1.697,-0.904 -2.338,-1.544 -0.66,-0.661 -1.145,-1.433 -1.498,-2.337 -0.352,-0.904 -0.527,-1.873 -0.527,-2.932 0,-1.036 0.176,-2.027 0.527,-2.91 0.354,-0.903 0.838,-1.675 1.498,-2.336 0.641,-0.64 1.414,-1.169 2.338,-1.544 0.902,-0.374 1.895,-0.551 2.998,-0.551 1.103,0 2.117,0.177 3.021,0.551 0.902,0.375 1.674,0.904 2.313,1.565 0.664,0.639 1.148,1.433 1.502,2.314 0.351,0.906 0.527,1.876 0.527,2.911 z" /><path
     style="fill:#000000;fill-opacity:1"
     inkscape:connector-curvature="0"
     id="path29"
     d="m 264.47328,45.150299 h 1.895 c 0.928,0 1.609,-0.22 2.051,-0.683 0.42,-0.441 0.641,-1.059 0.641,-1.83 0,-0.375 -0.045,-0.684 -0.154,-0.992 -0.111,-0.287 -0.289,-0.53 -0.508,-0.75 -0.221,-0.2 -0.486,-0.375 -0.838,-0.485 -0.332,-0.11 -0.729,-0.154 -1.191,-0.154 h -1.895 v 4.894 z m 0,2.272 v 4.96 h -2.977 v -14.396 h 4.871 c 0.973,0 1.832,0.11 2.559,0.353 0.705,0.221 1.301,0.551 1.764,0.97 0.463,0.397 0.793,0.904 1.014,1.477 0.221,0.551 0.33,1.168 0.33,1.852 0,0.706 -0.109,1.344 -0.33,1.94 -0.242,0.573 -0.596,1.08 -1.057,1.521 -0.463,0.419 -1.059,0.75 -1.766,0.97 -0.727,0.243 -1.564,0.354 -2.514,0.354 h -1.894 z" /><polygon
     transform="translate(-17.038718,-3.9757008)"
     style="fill:#000000;fill-opacity:1"
     id="polygon31"
     points="299.17,50.251 294.365,50.251 294.365,54.021 300.537,54.021 300.537,56.358 291.365,56.358 291.365,41.962 300.537,41.962 300.537,44.3 294.365,44.3 294.365,48.003 299.17,48.003 " /><path
     style="fill:#000000;fill-opacity:1"
     inkscape:connector-curvature="0"
     id="path33"
     d="m 289.09828,44.797299 h 1.521 c 0.484,0 0.902,-0.066 1.258,-0.176 0.352,-0.132 0.639,-0.286 0.857,-0.507 0.221,-0.22 0.375,-0.463 0.484,-0.771 0.111,-0.287 0.156,-0.595 0.156,-0.948 0,-0.684 -0.221,-1.213 -0.662,-1.587 -0.463,-0.375 -1.146,-0.551 -2.072,-0.551 h -1.543 v 4.54 z m 0,2.096 v 5.489 h -2.979 v -14.396 h 4.521 c 0.992,0 1.852,0.11 2.578,0.309 0.707,0.22 1.303,0.507 1.744,0.882 0.463,0.352 0.793,0.793 1.012,1.322 0.199,0.507 0.311,1.058 0.311,1.675 0,0.485 -0.066,0.925 -0.199,1.367 -0.133,0.418 -0.33,0.815 -0.594,1.168 -0.242,0.353 -0.574,0.661 -0.949,0.926 -0.375,0.265 -0.816,0.485 -1.299,0.661 0.197,0.088 0.373,0.221 0.551,0.375 0.152,0.154 0.309,0.331 0.439,0.528 l 3.352,5.182 h -2.689 c -0.508,0 -0.859,-0.199 -1.082,-0.574 l -2.732,-4.408 c -0.111,-0.178 -0.244,-0.31 -0.375,-0.397 -0.133,-0.066 -0.33,-0.11 -0.596,-0.11 h -1.014 z" /><path
     style="fill:#000000;fill-opacity:1"
     inkscape:connector-curvature="0"
     id="path35"
     d="m 301.28928,38.009299 c 0.088,0 0.154,0.021 0.242,0.065 0.064,0.044 0.133,0.088 0.197,0.132 0.066,0.066 0.135,0.155 0.221,0.243 l 7.232,9.171 c -0.045,-0.243 -0.066,-0.486 -0.066,-0.728 -0.023,-0.242 -0.023,-0.463 -0.023,-0.683 v -8.223 h 2.625 v 14.396 h -1.543 c -0.221,0 -0.42,-0.043 -0.574,-0.11 -0.152,-0.088 -0.307,-0.22 -0.463,-0.397 l -7.164,-9.126 c 0,0.242 0.021,0.462 0.043,0.683 0,0.221 0,0.441 0,0.618 v 8.333 h -2.623 v -14.397 h 1.566 c 0.133,0 0.24,0 0.33,0.023 z" /><polygon
     transform="translate(-17.038718,-3.9757008)"
     style="fill:#000000;fill-opacity:1"
     id="polygon37"
     points="332.174,56.358 332.174,41.962 335.17,41.962 335.17,56.358 " /><path
     style="fill:#000000;fill-opacity:1"
     inkscape:connector-curvature="0"
     id="path39"
     d="m 331.33828,48.832299 c 0.154,0 0.309,0.066 0.42,0.177 l 1.166,1.256 c -0.572,0.75 -1.301,1.3 -2.158,1.698 -0.861,0.376 -1.898,0.573 -3.088,0.573 -1.08,0 -2.051,-0.176 -2.91,-0.55 -0.859,-0.376 -1.586,-0.882 -2.182,-1.522 -0.596,-0.661 -1.059,-1.433 -1.389,-2.337 -0.332,-0.905 -0.486,-1.896 -0.486,-2.955 0,-0.705 0.09,-1.388 0.242,-2.027 0.156,-0.64 0.377,-1.235 0.662,-1.786 0.311,-0.551 0.662,-1.036 1.08,-1.478 0.418,-0.419 0.904,-0.793 1.434,-1.102 0.527,-0.309 1.102,-0.552 1.719,-0.706 0.639,-0.154 1.301,-0.243 2.006,-0.243 0.529,0 1.037,0.044 1.5,0.133 0.463,0.088 0.904,0.22 1.322,0.396 0.42,0.154 0.793,0.353 1.146,0.596 0.332,0.242 0.662,0.484 0.926,0.771 l -0.99,1.366 c -0.068,0.088 -0.135,0.155 -0.244,0.22 -0.088,0.067 -0.219,0.111 -0.373,0.111 -0.156,0 -0.311,-0.066 -0.486,-0.176 -0.154,-0.11 -0.354,-0.243 -0.596,-0.375 -0.221,-0.133 -0.529,-0.265 -0.883,-0.375 -0.352,-0.11 -0.793,-0.176 -1.344,-0.176 -0.596,0 -1.146,0.109 -1.652,0.33 -0.486,0.221 -0.928,0.529 -1.279,0.949 -0.375,0.419 -0.641,0.925 -0.838,1.521 -0.197,0.596 -0.311,1.278 -0.311,2.05 0,0.772 0.113,1.478 0.332,2.072 0.221,0.595 0.508,1.125 0.883,1.521 0.373,0.419 0.814,0.75 1.301,0.948 0.508,0.221 1.033,0.331 1.609,0.331 0.33,0 0.639,-0.022 0.902,-0.044 0.287,-0.044 0.531,-0.087 0.771,-0.176 0.244,-0.067 0.465,-0.177 0.662,-0.309 0.223,-0.11 0.42,-0.287 0.641,-0.462 0.064,-0.066 0.131,-0.111 0.221,-0.155 0.088,-0.043 0.176,-0.065 0.264,-0.065 z" /><path
     style="fill:#000000;fill-opacity:1"
     inkscape:connector-curvature="0"
     id="path41"
     d="m 340.88328,50.001299 c 0.486,0 0.926,-0.087 1.301,-0.243 0.396,-0.176 0.707,-0.396 0.971,-0.683 0.264,-0.309 0.484,-0.662 0.617,-1.08 0.133,-0.441 0.197,-0.905 0.197,-1.433 v -8.576 h 2.977 v 8.576 c 0,0.86 -0.133,1.676 -0.418,2.403 -0.287,0.727 -0.684,1.366 -1.213,1.896 -0.506,0.507 -1.146,0.925 -1.896,1.235 -0.75,0.286 -1.588,0.44 -2.535,0.44 -0.924,0 -1.764,-0.154 -2.535,-0.44 -0.75,-0.31 -1.367,-0.728 -1.896,-1.235 -0.527,-0.53 -0.924,-1.168 -1.211,-1.896 -0.287,-0.728 -0.42,-1.543 -0.42,-2.403 v -8.576 h 2.977 v 8.576 c 0,0.528 0.066,0.992 0.199,1.433 0.154,0.418 0.352,0.771 0.615,1.08 0.266,0.286 0.596,0.506 0.971,0.683 0.375,0.156 0.815,0.243 1.299,0.243 z" /><path
     style="fill:#000000;fill-opacity:1"
     inkscape:connector-curvature="0"
     id="path43"
     d="m 357.96928,40.742299 c -0.088,0.155 -0.176,0.265 -0.287,0.331 -0.088,0.066 -0.197,0.11 -0.354,0.11 -0.152,0 -0.307,-0.044 -0.482,-0.154 -0.156,-0.11 -0.354,-0.22 -0.574,-0.332 -0.242,-0.109 -0.486,-0.241 -0.793,-0.33 -0.289,-0.11 -0.617,-0.154 -1.014,-0.154 -0.684,0 -1.191,0.154 -1.543,0.462 -0.355,0.31 -0.508,0.707 -0.508,1.191 0,0.331 0.088,0.595 0.264,0.794 0.199,0.221 0.441,0.396 0.748,0.551 0.311,0.155 0.664,0.287 1.059,0.397 0.377,0.132 0.773,0.243 1.191,0.396 0.418,0.133 0.816,0.31 1.189,0.508 0.398,0.176 0.752,0.418 1.059,0.705 0.311,0.309 0.551,0.662 0.752,1.08 0.176,0.419 0.264,0.925 0.264,1.521 0,0.662 -0.111,1.279 -0.332,1.852 -0.219,0.573 -0.551,1.059 -0.99,1.499 -0.42,0.419 -0.949,0.75 -1.588,0.993 -0.641,0.243 -1.344,0.375 -2.141,0.375 -0.463,0 -0.924,-0.044 -1.365,-0.132 -0.461,-0.11 -0.904,-0.221 -1.32,-0.396 -0.42,-0.155 -0.818,-0.353 -1.17,-0.596 -0.375,-0.222 -0.705,-0.486 -0.971,-0.771 l 0.861,-1.412 c 0.064,-0.11 0.176,-0.198 0.285,-0.264 0.133,-0.067 0.242,-0.089 0.375,-0.089 0.176,0 0.375,0.066 0.572,0.199 0.199,0.132 0.42,0.265 0.684,0.418 0.266,0.176 0.551,0.309 0.902,0.442 0.332,0.132 0.752,0.197 1.215,0.197 0.705,0 1.232,-0.154 1.609,-0.463 0.396,-0.33 0.574,-0.794 0.574,-1.432 0,-0.354 -0.09,-0.662 -0.287,-0.882 -0.178,-0.221 -0.42,-0.419 -0.729,-0.552 -0.309,-0.154 -0.66,-0.286 -1.035,-0.397 -0.398,-0.11 -0.795,-0.243 -1.213,-0.375 -0.398,-0.132 -0.814,-0.286 -1.191,-0.463 -0.396,-0.199 -0.75,-0.441 -1.035,-0.75 -0.309,-0.286 -0.551,-0.661 -0.75,-1.124 -0.199,-0.44 -0.285,-1.014 -0.285,-1.675 0,-0.53 0.109,-1.059 0.33,-1.543 0.197,-0.507 0.506,-0.948 0.926,-1.345 0.396,-0.397 0.902,-0.706 1.498,-0.948 0.617,-0.243 1.301,-0.353 2.072,-0.353 0.859,0 1.652,0.133 2.404,0.396 0.727,0.265 1.365,0.64 1.875,1.125 z" /><path
     style="fill:#000000;fill-opacity:1"
     inkscape:connector-curvature="0"
     id="path45"
     d="m 372.35098,49.779265 c 0.483,0 0.926,-0.088 1.3,-0.242 0.375,-0.177 0.705,-0.396 0.97,-0.705 0.264,-0.287 0.462,-0.663 0.617,-1.081 0.132,-0.418 0.199,-0.903 0.199,-1.409 v -8.578 h 2.976 v 8.578 c 0,0.858 -0.132,1.651 -0.418,2.4 -0.287,0.729 -0.684,1.346 -1.213,1.874 -0.527,0.529 -1.146,0.95 -1.896,1.235 -0.749,0.31 -1.586,0.463 -2.534,0.463 -0.928,0 -1.787,-0.153 -2.537,-0.463 -0.749,-0.285 -1.387,-0.706 -1.895,-1.235 -0.53,-0.528 -0.926,-1.145 -1.214,-1.874 -0.286,-0.749 -0.418,-1.542 -0.418,-2.4 v -8.578 h 2.977 v 8.578 c 0,0.506 0.066,0.991 0.199,1.409 0.154,0.418 0.352,0.794 0.617,1.081 0.265,0.309 0.573,0.528 0.97,0.705 0.372,0.154 0.813,0.242 1.3,0.242 z" /><path
     style="fill:#000000;fill-opacity:1"
     inkscape:connector-curvature="0"
     id="path47"
     d="m 383.52798,37.787265 c 0.088,0 0.176,0.021 0.241,0.065 0.088,0.023 0.154,0.088 0.221,0.132 0.065,0.066 0.132,0.154 0.221,0.243 l 7.208,9.171 c -0.021,-0.242 -0.044,-0.485 -0.066,-0.729 0,-0.24 -0.021,-0.462 -0.021,-0.682 v -8.224 h 2.645 v 14.374 h -1.543 c -0.243,0 -0.419,-0.021 -0.596,-0.109 -0.154,-0.067 -0.308,-0.199 -0.462,-0.375 l -7.164,-9.128 c 0.021,0.244 0.044,0.463 0.044,0.684 0.021,0.221 0.021,0.42 0.021,0.618 v 8.311 h -2.624 v -14.374 h 1.565 c 0.112,0 0.221,0 0.31,0.023 z" /><polygon
     transform="translate(226.04699,-30.101735)"
     style="fill:#000000;fill-opacity:1"
     id="polygon49"
     points="171.324,67.866 174.323,67.866 174.323,82.239 171.324,82.239 " /><path
     style="fill:#000000;fill-opacity:1"
     inkscape:connector-curvature="0"
     id="path51"
     d="m 402.08898,37.764265 h 2.402 c 0.265,0 0.486,0.067 0.64,0.176 0.154,0.133 0.286,0.287 0.354,0.485 l 3.129,8.289 c 0.111,0.309 0.221,0.639 0.354,1.016 0.109,0.352 0.198,0.748 0.31,1.146 0.087,-0.397 0.176,-0.794 0.286,-1.146 0.109,-0.377 0.22,-0.707 0.329,-1.016 l 3.087,-8.289 c 0.066,-0.176 0.199,-0.331 0.354,-0.463 0.176,-0.131 0.374,-0.198 0.638,-0.198 h 2.404 l -5.798,14.374 h -2.691 z" /><polygon
     transform="translate(226.04699,-30.101735)"
     style="fill:#000000;fill-opacity:1"
     id="polygon53"
     points="195.046,76.134 195.046,79.926 201.22,79.926 201.22,82.239 192.047,82.239 192.047,67.866 201.22,67.866 201.22,70.202 195.046,70.202 195.046,73.884 199.853,73.884 199.853,76.134 " /><path
     style="fill:#000000;fill-opacity:1"
     inkscape:connector-curvature="0"
     id="path55"
     d="m 432.86598,44.576265 h 1.521 c 0.484,0 0.902,-0.065 1.256,-0.176 0.354,-0.133 0.641,-0.31 0.861,-0.506 0.221,-0.223 0.396,-0.486 0.484,-0.773 0.111,-0.287 0.176,-0.596 0.176,-0.947 0,-0.684 -0.242,-1.213 -0.684,-1.587 -0.463,-0.374 -1.146,-0.573 -2.071,-0.573 h -1.543 z m 0,2.093 v 5.468 h -2.978 v -14.373 h 4.521 c 0.993,0 1.874,0.111 2.579,0.31 0.705,0.198 1.301,0.506 1.742,0.859 0.463,0.374 0.794,0.815 1.015,1.324 0.221,0.527 0.309,1.079 0.309,1.697 0,0.483 -0.067,0.925 -0.199,1.365 -0.132,0.419 -0.33,0.794 -0.595,1.147 -0.244,0.352 -0.573,0.66 -0.949,0.947 -0.374,0.264 -0.815,0.485 -1.301,0.64 0.199,0.11 0.374,0.242 0.552,0.396 0.153,0.132 0.31,0.31 0.44,0.528 l 3.352,5.159 h -2.69 c -0.485,0 -0.858,-0.177 -1.079,-0.571 l -2.733,-4.41 c -0.111,-0.178 -0.243,-0.287 -0.376,-0.376 -0.133,-0.065 -0.33,-0.11 -0.596,-0.11 z" /><path
     style="fill:#000000;fill-opacity:1"
     inkscape:connector-curvature="0"
     id="path57"
     d="m 450.96498,40.520265 c -0.111,0.154 -0.199,0.263 -0.287,0.33 -0.109,0.068 -0.221,0.111 -0.373,0.111 -0.154,0 -0.311,-0.067 -0.463,-0.154 -0.178,-0.111 -0.375,-0.221 -0.596,-0.331 -0.221,-0.132 -0.484,-0.243 -0.771,-0.331 -0.287,-0.11 -0.639,-0.155 -1.037,-0.155 -0.682,0 -1.191,0.155 -1.543,0.464 -0.33,0.285 -0.506,0.705 -0.506,1.189 0,0.33 0.088,0.573 0.285,0.793 0.176,0.199 0.42,0.396 0.729,0.53 0.309,0.153 0.66,0.286 1.057,0.418 0.398,0.111 0.795,0.243 1.191,0.396 0.42,0.133 0.816,0.309 1.211,0.485 0.377,0.199 0.729,0.441 1.037,0.727 0.309,0.287 0.551,0.663 0.75,1.081 0.176,0.42 0.287,0.926 0.287,1.521 0,0.66 -0.133,1.279 -0.355,1.852 -0.219,0.552 -0.547,1.058 -0.99,1.478 -0.416,0.439 -0.947,0.771 -1.586,1.014 -0.619,0.243 -1.346,0.375 -2.139,0.375 -0.463,0 -0.906,-0.044 -1.365,-0.153 -0.465,-0.089 -0.885,-0.222 -1.303,-0.376 -0.416,-0.176 -0.816,-0.376 -1.189,-0.596 -0.375,-0.242 -0.707,-0.484 -0.971,-0.771 l 0.859,-1.41 c 0.088,-0.111 0.176,-0.199 0.287,-0.266 0.133,-0.064 0.266,-0.109 0.396,-0.109 0.176,0 0.352,0.065 0.551,0.199 0.197,0.131 0.42,0.284 0.684,0.441 0.264,0.154 0.553,0.308 0.904,0.438 0.332,0.134 0.748,0.199 1.213,0.199 0.703,0 1.234,-0.155 1.631,-0.483 0.375,-0.312 0.551,-0.795 0.551,-1.412 0,-0.375 -0.088,-0.662 -0.264,-0.881 -0.199,-0.222 -0.441,-0.42 -0.752,-0.574 -0.307,-0.154 -0.639,-0.287 -1.035,-0.376 -0.395,-0.109 -0.793,-0.24 -1.213,-0.374 -0.395,-0.133 -0.793,-0.285 -1.189,-0.484 -0.396,-0.176 -0.729,-0.42 -1.035,-0.728 -0.309,-0.308 -0.553,-0.684 -0.75,-1.124 -0.176,-0.441 -0.287,-1.014 -0.287,-1.675 0,-0.53 0.111,-1.06 0.332,-1.566 0.197,-0.485 0.529,-0.948 0.924,-1.323 0.42,-0.395 0.928,-0.705 1.523,-0.948 0.592,-0.241 1.277,-0.353 2.047,-0.353 0.861,0 1.678,0.133 2.404,0.397 0.75,0.265 1.367,0.64 1.875,1.102 z" /><polygon
     transform="translate(226.04699,-30.101735)"
     style="fill:#000000;fill-opacity:1"
     id="polygon59"
     points="228.445,67.866 231.445,67.866 231.445,82.239 228.445,82.239 " /><polygon
     transform="translate(226.04699,-30.101735)"
     style="fill:#000000;fill-opacity:1"
     id="polygon61"
     points="233.627,70.27 233.627,67.866 245.023,67.866 245.023,70.27 240.836,70.27 240.836,82.239 237.838,82.239 237.838,70.27 " /><path
     style="fill:#000000;fill-opacity:1"
     inkscape:connector-curvature="0"
     id="path63"
     d="m 479.78098,46.626265 v 5.512 h -2.977 v -5.512 l -5.227,-8.862 h 2.604 c 0.264,0 0.461,0.067 0.637,0.176 0.156,0.133 0.266,0.287 0.355,0.485 l 2.357,4.519 c 0.176,0.31 0.309,0.596 0.441,0.86 0.131,0.265 0.244,0.529 0.33,0.794 0.178,-0.508 0.439,-1.059 0.752,-1.654 l 2.334,-4.519 c 0.09,-0.176 0.199,-0.308 0.355,-0.463 0.15,-0.131 0.373,-0.198 0.615,-0.198 h 2.646 z" /></g><polygon
   points="409.004,-7.156 -16.705,-7.156 -16.705,166.301 409.004,166.301 "
   id="polygon87"
   style="fill:none"
   transform="matrix(0.4119117,0,0,0.4119117,-1.1511432,2.401169)"
   inkscape:export-xdpi="122.1"
   inkscape:export-ydpi="122.1" /><g
   id="g79"
   transform="matrix(-0.3908206,0.13011728,-0.13011728,-0.3908206,62.221141,54.124723)"
   inkscape:export-xdpi="122.1"
   inkscape:export-ydpi="122.1"><g
     id="g4275"><path
       d="m 65.857,25.868 c -27.359,0 -49.538,22.179 -49.538,49.56 0,21.671 13.911,40.079 33.289,46.804 1.3,-7.827 8.091,-13.779 16.293,-13.779 8.178,0 14.969,5.952 16.27,13.758 19.355,-6.747 33.223,-25.156 33.223,-46.782 C 115.395,48.047 93.215,25.868 65.857,25.868 Z"
       id="path81"
       inkscape:connector-curvature="0"
       style="fill:#000000;fill-opacity:1" /><path
       d="m 82.37,75.383 c 0,9.128 -7.408,16.513 -16.512,16.513 -9.127,0 -16.512,-7.385 -16.512,-16.513 0,-9.125 7.385,-16.511 16.512,-16.511 9.103,0 16.512,7.385 16.512,16.511 z"
       id="path83"
       inkscape:connector-curvature="0"
       style="fill:#ffffff;fill-opacity:1" /><path
       d="m 74.103,125.009 c 0,4.564 -3.682,8.268 -8.245,8.268 -4.563,0 -8.267,-3.703 -8.267,-8.268 0,-4.563 3.704,-8.245 8.267,-8.245 4.563,0 8.245,3.681 8.245,8.245 z"
       id="path85"
       inkscape:connector-curvature="0"
       style="fill:#000000;fill-opacity:1" /></g></g><text
   xml:space="preserve"
   style="font-style:normal;font-weight:normal;font-size:4.94294024px;line-height:0%;font-family:sans-serif;letter-spacing:0px;word-spacing:0px;fill:#000000;fill-opacity:1;stroke:none;stroke-width:0.4119117px;stroke-linecap:butt;stroke-linejoin:miter;stroke-opacity:1"
   x="51.692387"
   y="47.306488"
   id="text4410"
   inkscape:export-xdpi="122.1"
   inkscape:export-ydpi="122.1"><tspan
     sodipodi:role="line"
     id="tspan4412"
     x="51.692387"
     y="47.306488"
     style="font-style:normal;font-variant:normal;font-weight:normal;font-stretch:normal;font-size:15.2475214px;line-height:1.25;font-family:'Liberation Sans';-inkscape-font-specification:'Liberation Sans';stroke-width:0.4119117px">Institute of Physics | Computational Physics</tspan></text>



</svg>